<svg aria-hidden="true" style="position: absolute; width: 0; height: 0; overflow: hidden;" version="1.1" xmlns="http://www.w3.org/2000/svg" xmlns:xlink="http://www.w3.org/1999/xlink">
<defs>
<symbol id="icon-adjust" viewBox="0 0 20 20">
<path d="M19 9.199c-0.182 0-0.799 0-0.98 0-0.553 0-1 0.359-1 0.801s0.447 0.799 1 0.799c0.182 0 0.799 0 0.98 0 0.552 0 1-0.357 1-0.799 0-0.441-0.449-0.801-1-0.801zM10 4.5c-3.051 0-5.5 2.449-5.5 5.5s2.449 5.5 5.5 5.5c3.050 0 5.5-2.449 5.5-5.5s-2.451-5.5-5.5-5.5zM10 14c-2.211 0-4-1.791-4-4 0-2.211 1.789-4 4-4v8zM3 10c0-0.441-0.449-0.801-1-0.801-0.185 0-0.816 0-1 0-0.553 0-1 0.359-1 0.801s0.447 0.799 1 0.799c0.184 0 0.815 0 1 0 0.551 0 1-0.358 1-0.799zM10 3c0.441 0 0.799-0.447 0.799-1 0-0.184 0-0.816 0-1 0-0.553-0.358-1-0.799-1s-0.801 0.447-0.801 1c0 0.184 0 0.816 0 1 0 0.553 0.359 1 0.801 1zM10 17c-0.442 0-0.801 0.447-0.801 1 0 0.184 0 0.816 0 1 0 0.553 0.359 1 0.801 1s0.799-0.447 0.799-1c0-0.184 0-0.816 0-1 0-0.553-0.358-1-0.799-1zM17.365 3.766c0.391-0.391 0.454-0.961 0.142-1.273s-0.883-0.248-1.272 0.143c-0.108 0.107-0.593 0.592-0.7 0.699-0.391 0.391-0.454 0.961-0.142 1.273s0.883 0.248 1.273-0.143c0.107-0.108 0.591-0.592 0.699-0.699zM3.334 15.533c-0.108 0.109-0.593 0.594-0.7 0.701-0.391 0.391-0.454 0.959-0.142 1.271s0.883 0.25 1.272-0.141c0.108-0.107 0.593-0.592 0.7-0.699 0.391-0.391 0.454-0.961 0.142-1.274s-0.883-0.247-1.272 0.142zM3.765 2.635c-0.39-0.391-0.961-0.455-1.273-0.143s-0.248 0.883 0.141 1.274c0.108 0.107 0.593 0.592 0.7 0.699 0.391 0.391 0.96 0.455 1.272 0.143s0.249-0.883-0.141-1.273c-0.107-0.108-0.591-0.593-0.699-0.7zM15.534 16.666c0.108 0.107 0.593 0.592 0.7 0.699 0.391 0.391 0.96 0.453 1.272 0.143 0.312-0.312 0.249-0.883-0.142-1.273-0.107-0.107-0.592-0.592-0.699-0.699-0.391-0.391-0.961-0.455-1.274-0.143s-0.248 0.882 0.143 1.273z"></path>
</symbol>
<symbol id="icon-github" viewBox="0 0 20 20">
<path d="M13.18 11.309c-0.718 0-1.3 0.807-1.3 1.799 0 0.994 0.582 1.801 1.3 1.801s1.3-0.807 1.3-1.801c-0.001-0.992-0.582-1.799-1.3-1.799zM17.706 6.626c0.149-0.365 0.155-2.439-0.635-4.426 0 0-1.811 0.199-4.551 2.080-0.575-0.16-1.548-0.238-2.519-0.238-0.973 0-1.945 0.078-2.52 0.238-2.741-1.881-4.552-2.080-4.552-2.080-0.789 1.987-0.781 4.061-0.634 4.426-0.928 1.008-1.495 2.219-1.495 3.871 0 7.186 5.963 7.301 7.467 7.301 0.342 0 1.018 0.002 1.734 0.002s1.392-0.002 1.732-0.002c1.506 0 7.467-0.115 7.467-7.301 0-1.652-0.566-2.863-1.494-3.871zM10.028 16.915h-0.056c-3.771 0-6.709-0.449-6.709-4.115 0-0.879 0.31-1.693 1.047-2.369 1.227-1.127 3.305-0.531 5.662-0.531 0.010 0 0.020 0 0.029 0s0.018 0 0.027 0c2.357 0 4.436-0.596 5.664 0.531 0.735 0.676 1.045 1.49 1.045 2.369 0 3.666-2.937 4.115-6.709 4.115zM6.821 11.309c-0.718 0-1.3 0.807-1.3 1.799 0 0.994 0.582 1.801 1.3 1.801s1.301-0.807 1.301-1.801c0-0.992-0.582-1.799-1.301-1.799z"></path>
</symbol>
<symbol id="icon-instagram-with-circle" viewBox="0 0 20 20">
<path d="M13 10c0 1.657-1.343 3-3 3s-3-1.343-3-3c0-0.171 0.018-0.338 0.049-0.5h-1.049v3.997c0 0.278 0.225 0.503 0.503 0.503h6.995c0.277 0 0.502-0.225 0.502-0.503v-3.997h-1.049c0.031 0.162 0.049 0.329 0.049 0.5zM10 12c1.104 0 2-0.896 2-2s-0.896-2-2-2-2 0.896-2 2 0.896 2 2 2zM12.4 7.9h1.199c0.166 0 0.301-0.135 0.301-0.3v-1.199c0-0.166-0.135-0.301-0.301-0.301h-1.199c-0.166 0-0.301 0.135-0.301 0.301v1.199c0.001 0.165 0.136 0.3 0.301 0.3zM10 0.4c-5.302 0-9.6 4.298-9.6 9.6s4.298 9.6 9.6 9.6c5.302 0 9.6-4.298 9.6-9.6s-4.298-9.6-9.6-9.6zM15 13.889c0 0.611-0.5 1.111-1.111 1.111h-7.778c-0.611 0-1.111-0.5-1.111-1.111v-7.778c0-0.611 0.5-1.111 1.111-1.111h7.778c0.611 0 1.111 0.5 1.111 1.111v7.778z"></path>
</symbol>
<symbol id="icon-linkedin-with-circle" viewBox="0 0 20 20">
<path d="M10 0.4c-5.302 0-9.6 4.298-9.6 9.6s4.298 9.6 9.6 9.6 9.6-4.298 9.6-9.6-4.298-9.6-9.6-9.6zM7.65 13.979h-1.944v-6.256h1.944v6.256zM6.666 6.955c-0.614 0-1.011-0.435-1.011-0.973 0-0.549 0.409-0.971 1.036-0.971s1.011 0.422 1.023 0.971c0 0.538-0.396 0.973-1.048 0.973zM14.75 13.979h-1.944v-3.467c0-0.807-0.282-1.355-0.985-1.355-0.537 0-0.856 0.371-0.997 0.728-0.052 0.127-0.065 0.307-0.065 0.486v3.607h-1.945v-4.26c0-0.781-0.025-1.434-0.051-1.996h1.689l0.089 0.869h0.039c0.256-0.408 0.883-1.010 1.932-1.010 1.279 0 2.238 0.857 2.238 2.699v3.699z"></path>
</symbol>
<symbol id="icon-twitter-with-circle" viewBox="0 0 20 20">
<path d="M10 0.4c-5.302 0-9.6 4.298-9.6 9.6s4.298 9.6 9.6 9.6 9.6-4.298 9.6-9.6-4.298-9.6-9.6-9.6zM13.905 8.264c0.004 0.082 0.005 0.164 0.005 0.244 0 2.5-1.901 5.381-5.379 5.381-1.068 0-2.062-0.312-2.898-0.85 0.147 0.018 0.298 0.025 0.451 0.025 0.886 0 1.701-0.301 2.348-0.809-0.827-0.016-1.525-0.562-1.766-1.312 0.115 0.021 0.233 0.033 0.355 0.033 0.172 0 0.34-0.023 0.498-0.066-0.865-0.174-1.517-0.938-1.517-1.854v-0.023c0.255 0.141 0.547 0.227 0.857 0.237-0.508-0.34-0.841-0.918-0.841-1.575 0-0.346 0.093-0.672 0.256-0.951 0.933 1.144 2.325 1.896 3.897 1.977-0.033-0.139-0.049-0.283-0.049-0.432 0-1.043 0.846-1.891 1.891-1.891 0.543 0 1.035 0.23 1.38 0.598 0.431-0.086 0.835-0.242 1.2-0.459-0.141 0.441-0.44 0.812-0.831 1.047 0.383-0.047 0.747-0.148 1.086-0.299-0.253 0.379-0.574 0.713-0.943 0.979z"></path>
</symbol>
</defs>
</svg>
